<?xml version="1.0" encoding="utf-8"?>
<!DOCTYPE svg PUBLIC "-//W3C//DTD SVG 1.1//EN" "http://www.w3.org/Graphics/SVG/1.1/DTD/svg11.dtd">
<svg version="1.1" id="Layer_1" xmlns:sketch="http://www.bohemiancoding.com/sketch/ns"
	 xmlns="http://www.w3.org/2000/svg" xmlns:xlink="http://www.w3.org/1999/xlink" x="0px" y="0px" width="600px" height="500px"
	 viewBox="-104.663 40.543 600 500" enable-background="new -104.663 40.543 600 500" xml:space="preserve">
<title>ceremony</title>
<desc>Created with Sketch.</desc>
<g transform="translate(0.000000, -8.000000)" sketch:type="MSArtboardGroup">
	<g>
		<g>
			<path fill="none" stroke="#ECD7C2" stroke-width="10" stroke-miterlimit="10" d="M234.408,397.956
				c13.048-16.786,22.726-36.583,27.493-58.758c9.02-42.025-1.087-83.675-24.393-116.01c-5.259-7.295-11.146-14.157-17.691-20.396
				c-11.704-11.162-25.33-20.482-40.541-27.338l8.42-8.125l6.229-6.009l-10.991-27.376l-49.926-10.717l-23.075,19.748l3.599,8.923
				l4.51,11.173C51.069,163.472-8.963,209.926-23.602,278.121c-16.92,78.828,33.294,156.315,112.11,173.23
				c47.204,10.139,93.868-3.937,127.44-33.696C222.678,411.689,228.838,405.112,234.408,397.956z"/>
			<path fill="none" stroke="#ECD7C2" stroke-width="10" stroke-miterlimit="10" d="M215.897,376.821
				c-5.356,7.557-11.606,14.333-18.473,20.38c-27.204,23.947-64.939,35.249-103.091,27.06
				C30.396,410.537-10.311,347.581,3.422,283.639c12.641-58.913,67.102-98.056,125.592-93.118c4.986,0.424,9.995,1.124,15.024,2.207
				c4.933,1.061,9.716,2.448,14.371,4.071c16.096,5.635,30.284,14.596,42.121,25.823c6.759,6.406,12.71,13.546,17.766,21.307
				c16.625,25.495,23.552,57.306,16.652,89.416C231.484,349.493,224.864,364.142,215.897,376.821z"/>
			<g>
				<path fill="none" stroke="#ECD7C2" stroke-width="10" stroke-miterlimit="10" d="M189.756,436.217
					c53.249,56.896,142.326,61.951,201.83,10.561c36.546-31.551,53.444-77.268,49.937-121.994
					c-0.704-8.966-2.238-17.846-4.59-26.604c-5.528-20.53-15.489-40.185-30.308-57.356c-28.093-32.53-67.418-49.573-107.267-50.47
					c-8.991-0.201-18.015,0.359-26.939,1.82c-15.233,2.49-27.555,6.195-43.882,14.626c-0.78,0.403-1.57,0.817-2.369,1.242"/>
				<path fill="none" stroke="#ECD7C2" stroke-width="10" stroke-miterlimit="10" d="M202.403,224.449
					c-7.466,6.608-14.794,14.636-23.028,24.983c-37.696,50.789-39.311,114.101-6.844,164.652"/>
				<path fill="none" stroke="#ECD7C2" stroke-width="10" stroke-miterlimit="10" d="M195.574,398.784
					c-27.747-44.432-22.828-102.384,12.318-141.558c2.533-2.82,5.2-5.555,8.038-8.176c0.909-0.839,1.835-1.667,2.78-2.482"/>
				<path fill="none" stroke="#ECD7C2" stroke-width="10" stroke-miterlimit="10" d="M241.534,231.129
					c11.161-5.775,23.011-9.606,35.081-11.614c9.186-1.531,18.47-1.975,27.71-1.331c30.364,2.104,59.92,15.754,81.382,40.615
					c10.797,12.499,18.494,26.611,23.205,41.409c2.801,8.829,4.439,17.901,5.125,27.025c2.708,36.141-11.022,73.062-40.555,98.566
					c-47.13,40.702-117.182,37.683-160.669-5.446"/>
			</g>
		</g>
	</g>
</g>
</svg>
