<?xml version="1.0" encoding="utf-8"?>
<!-- Generator: Adobe Illustrator 17.0.0, SVG Export Plug-In . SVG Version: 6.00 Build 0)  -->
<!DOCTYPE svg PUBLIC "-//W3C//DTD SVG 1.1//EN" "http://www.w3.org/Graphics/SVG/1.1/DTD/svg11.dtd">
<svg version="1.1" id="Layer_1" xmlns:sketch="http://www.bohemiancoding.com/sketch/ns"
	 xmlns="http://www.w3.org/2000/svg" xmlns:xlink="http://www.w3.org/1999/xlink" x="0px" y="0px" width="600px" height="500px"
	 viewBox="-104.663 40.543 600 500" enable-background="new -104.663 40.543 600 500" xml:space="preserve">
<title>dinner</title>
<desc>Created with Sketch.</desc>
<g transform="translate(0.000000, -8.000000)" sketch:type="MSArtboardGroup">
	<g>
		<path fill="#ECD7C2" d="M96.213,234.799c2.572,2.572,6.733,2.572,9.3,0c2.572-2.567,2.572-6.729,0-9.3l-65.426-65.43
			c-2.567-2.567-6.733-2.572-9.3,0s-2.567,6.733,0,9.3L96.213,234.799z"/>
		<path fill="#ECD7C2" d="M76.241,254.775c2.567,2.567,6.733,2.572,9.3,0c2.567-2.567,2.567-6.733,0-9.3L20.115,180.04
			c-2.572-2.567-6.733-2.572-9.3,0c-2.572,2.567-2.572,6.733,0,9.3L76.241,254.775z"/>
		<path fill="#ECD7C2" d="M80.3,298.787c8.36,8.36,15.577,9.247,25.72,3.167l10.756-6.456l45.808,48.151L48.402,452.258
			c-2.666,2.531-4.153,5.936-4.202,9.578c-0.049,3.656,1.357,7.092,3.956,9.695l19.972,19.981c2.549,2.536,5.936,3.942,9.516,3.942
			c3.656,0,7.208-1.537,9.748-4.202L195.194,377.93l107.843,113.375c2.531,2.657,5.945,4.148,9.596,4.193
			c3.75,0,7.123-1.402,9.681-3.96l19.958-19.963c2.603-2.598,4.014-6.044,3.978-9.69c-0.045-3.647-1.532-7.056-4.198-9.592
			L227.817,343.627l45.176-47.492c6.568,2.482,13.763,3.732,21.468,3.732c23.184,0,47.618-11.142,67.048-30.567
			c16.003-16.007,26.535-35.683,29.649-55.4c3.239-20.496-1.846-38.64-14.3-51.099c-9.972-9.972-23.605-15.241-39.433-15.241
			c-23.18,0-47.627,11.146-67.061,30.589c-26.275,26.28-36.866,61.909-26.849,88.511l-48.303,45.956l-48.975-46.583l6.456-10.761
			c6.084-10.143,5.197-17.351-3.163-25.711l-89.47-89.466c-2.567-2.567-6.733-2.572-9.305,0c-2.567,2.572-2.563,6.733,0,9.3
			l89.475,89.466c4.023,4.032,4.117,4.753,1.183,9.645l-9.166,15.281c-1.586,2.639-1.12,6.03,1.107,8.149l52.25,49.818
			l-13.485,12.826l-49.437-51.968c-2.128-2.236-5.515-2.701-8.154-1.111l-15.277,9.162c-4.897,2.934-5.613,2.845-9.645-1.183
			L0.139,200.016c-2.567-2.567-6.733-2.572-9.3,0c-2.567,2.567-2.567,6.733,0,9.3L80.3,298.787z M332.981,462.262l-19.967,19.976
			l4.65,4.65l-5.098-4.659L204.27,368.383l14.385-15.12L332.981,462.262z M255.898,273.045c2.074-1.971,2.634-5.067,1.384-7.643
			c-10.707-22.01-1.496-54.06,22.387-77.948c16.737-16.742,38.331-26.737,57.761-26.737c12.262,0,22.678,3.942,30.132,11.388
			c9.404,9.404,13.171,23.52,10.609,39.742c-2.688,16.997-11.899,34.097-25.957,48.156c-16.728,16.728-38.317,26.714-57.738,26.714
			c-0.004,0-0.004,0-0.004,0c-7.491,0-14.287-1.46-20.209-4.341c-2.567-1.25-5.667-0.694-7.643,1.384L77.858,482.193
			c-0.072,0.072-0.139,0.103-0.215,0.103l-20.182-20.496L255.898,273.045z"/>
	</g>
</g>
</svg>
