<?xml version="1.0" encoding="utf-8"?>
<!-- Generator: Adobe Illustrator 17.0.0, SVG Export Plug-In . SVG Version: 6.00 Build 0)  -->
<!DOCTYPE svg PUBLIC "-//W3C//DTD SVG 1.1//EN" "http://www.w3.org/Graphics/SVG/1.1/DTD/svg11.dtd">
<svg version="1.1" id="Layer_1" xmlns:sketch="http://www.bohemiancoding.com/sketch/ns"
	 xmlns="http://www.w3.org/2000/svg" xmlns:xlink="http://www.w3.org/1999/xlink" x="0px" y="0px" width="600px" height="500px"
	 viewBox="-104.663 40.543 600 500" enable-background="new -104.663 40.543 600 500" xml:space="preserve">
<title>party</title>
<desc>Created with Sketch.</desc>
<g transform="translate(0.000000, -8.000000)" sketch:type="MSArtboardGroup">
	<g>
		<path sketch:type="MSShapeGroup" fill="none" stroke="#ECD7C2" stroke-width="10" stroke-miterlimit="10" d="M148.74,352.679
			c-23.492,0-42.604-19.112-42.604-42.604s19.112-42.604,42.604-42.604s42.604,19.112,42.604,42.604S172.232,352.679,148.74,352.679
			L148.74,352.679z M387.323,139.659c-28.238,0-51.125,22.887-51.125,51.125c0,25.324,18.431,46.294,42.604,50.358v142.093
			l-14.545,14.545c-3.332-3.332-8.725-3.332-12.048,0l-36.154,36.154c-3.323,3.323-3.323,8.717,0,12.048l12.048,12.048
			c3.332,3.323,8.725,3.323,12.048,0l36.154-36.154c3.332-3.323,3.332-8.717,0-12.048l17.05-17.05
			c0.341-0.341,0.494-0.775,0.767-1.15c0.375-0.528,0.809-1.005,1.057-1.602c0.409-0.98,0.596-2.011,0.622-3.059
			c0-0.068,0.043-0.128,0.043-0.204V241.142c24.174-4.064,42.604-25.034,42.604-50.358
			C438.448,162.546,415.561,139.659,387.323,139.659L387.323,139.659z M-21.677,173.742c9.416,0,17.042-7.626,17.042-17.042
			c0-9.416-7.626-17.042-17.042-17.042c-9.415,0-17.042,7.626-17.042,17.042C-38.718,166.116-31.092,173.742-21.677,173.742
			L-21.677,173.742z M20.927,463.45h-51.125c-4.686,0-8.521,3.834-8.521,8.521c0,4.686,3.834,8.521,8.521,8.521h51.125
			c4.686,0,8.521-3.834,8.521-8.521C29.448,467.285,25.614,463.45,20.927,463.45L20.927,463.45z M148.74,139.659
			c-94.121,0-170.417,76.296-170.417,170.417S54.619,480.493,148.74,480.493s170.417-76.296,170.417-170.417
			S242.861,139.659,148.74,139.659L148.74,139.659z M455.49,471.971c0,14.093-11.469,25.562-25.562,25.562H-30.197
			c-14.093,0-25.562-11.469-25.562-25.562V148.179c0-14.093,11.469-25.562,25.562-25.562h460.125
			c14.093,0,25.562,11.469,25.562,25.562V471.971z"/>
	</g>
</g>
</svg>
