<?xml version="1.0" encoding="utf-8"?>
<!-- Generator: Adobe Illustrator 17.0.0, SVG Export Plug-In . SVG Version: 6.00 Build 0)  -->
<!DOCTYPE svg PUBLIC "-//W3C//DTD SVG 1.1//EN" "http://www.w3.org/Graphics/SVG/1.1/DTD/svg11.dtd">
<svg version="1.1" id="Layer_1" xmlns:sketch="http://www.bohemiancoding.com/sketch/ns"
	 xmlns="http://www.w3.org/2000/svg" xmlns:xlink="http://www.w3.org/1999/xlink" x="0px" y="0px" width="600px" height="500px"
	 viewBox="-104.663 40.543 600 500" enable-background="new -104.663 40.543 600 500" xml:space="preserve">
<title>reception</title>
<desc>Created with Sketch.</desc>
<g transform="translate(0.000000, -8.000000)" sketch:type="MSArtboardGroup">
	<g>
		<path fill="none" d="M268.816,215.35c-26.362,31.732-48.33,50.282-67.369,62.975c1.465,4.394,3.417,12.204,5.37,19.039
			l21.968,6.835c11.716-20.015,29.291-42.96,59.07-71.274C280.044,219.743,272.233,216.326,268.816,215.35z"/>
		<path fill="none" d="M180.944,328.119c-1.465-0.488-2.929-1.953-3.417-3.417c-4.882-16.11-7.323-24.409-8.299-28.803
			c-3.905,1.953-7.323,3.417-11.228,4.882c-5.858,2.441-11.716,4.882-17.086,7.811c-27.826,14.157-35.637,24.409-35.637,24.409
			L0.318,444.794c-0.488,0.488-0.488,0.488-0.976,0.488c-0.976,0.976-1.465,4.882,1.953,11.716
			c11.228,0.976,49.306,6.835,60.534,57.117c7.323,2.929,11.228,2.441,12.693,0.976c0-0.488,0-0.488,0.488-0.488l104.958-111.305
			c0,0,0,0,0.488-0.488c0,0,9.275-8.787,21.968-37.102c2.441-5.37,4.394-11.228,6.835-17.574c1.465-3.417,2.441-7.323,3.905-11.228
			L180.944,328.119z M157.511,415.503c-0.976,0.976-1.953,1.465-3.417,1.465c-1.465,0-2.441-0.488-3.417-1.465
			c-1.953-1.953-1.953-4.882,0-6.835c32.22-30.267,34.661-51.747,34.661-52.235c0.488-2.441,2.441-4.394,5.37-4.394
			c2.441,0,4.882,2.441,4.394,5.37C195.101,358.386,192.66,382.307,157.511,415.503z"/>
		<path fill="none" d="M186.314,319.82l30.755,9.275c1.953-5.37,4.882-10.74,7.811-16.11l-22.944-6.835
			c-1.465-0.488-2.929-1.953-3.417-3.417c-2.441-8.787-4.394-14.645-5.37-19.039c-5.37,2.929-10.252,5.858-15.134,8.299
			C179.968,298.34,184.361,313.473,186.314,319.82z"/>
		<path fill="none" d="M7.64,467.738c4.394,6.346,10.74,13.669,20.015,22.944c8.787,7.811,16.598,13.669,22.944,17.574
			C40.837,478.478,19.845,470.179,7.64,467.738z"/>
		<path fill="none" d="M282.485,200.704l-6.835,6.835c5.37,2.441,12.693,7.811,19.527,18.551l6.346-6.835
			C292.737,208.027,285.902,202.657,282.485,200.704z"/>
		<path fill="none" d="M371.822,100.139c-0.488-0.488-0.976-0.976-1.953-0.488c-0.488,0-1.465,0.488-1.953,0.976l-6.835,7.323
			c-0.488,0.488-0.976,0.976-0.976,1.953c0,0.488,0.488,1.465,0.976,1.953l21.968,20.503c0.488,0.488,0.976,0.976,1.953,0.488
			c0.488,0,1.465-0.488,1.953-0.976l6.835-7.323c0.488-0.488,0.976-0.976,0.976-1.953c0-0.488-0.488-1.465-0.976-1.953
			L371.822,100.139z"/>

			<rect x="354.175" y="125.955" transform="matrix(-0.6855 0.7281 -0.7281 -0.6855 705.8691 -37.3856)" fill="none" width="13.669" height="15.622"/>
		<path fill="#ECD7C2" d="M313.728,156.28l-12.693,13.669c-1.465,1.465-1.465,3.905,0,5.37c0.488,0.488,1.465,0.976,2.441,0.976
			s1.953-0.488,2.441-0.976l12.693-13.669c1.465-1.465,1.465-3.905,0-5.37C317.146,154.815,315.193,154.815,313.728,156.28z"/>
		<path fill="#ECD7C2" d="M341.066,157.256l-19.039,20.015c-1.465,1.465-1.465,3.905,0,5.37c0.488,0.488,1.465,0.976,2.441,0.976
			c0.976,0,1.953-0.488,2.441-0.976l19.039-20.015c1.465-1.465,1.465-3.905,0-5.37C344.484,155.792,342.531,155.792,341.066,157.256
			z"/>
		<path fill="#ECD7C2" d="M340.578,181.665l-12.693,13.669c-1.465,1.465-1.465,3.905,0,5.37c0.488,0.488,1.465,0.976,2.441,0.976
			c0.976,0,1.953-0.488,2.441-0.976l12.693-13.669c1.465-1.465,1.465-3.905,0-5.37C343.996,180.201,342.043,180.201,340.578,181.665
			z"/>
		<path fill="#ECD7C2" d="M282.973,189.964c-1.953-0.488-3.905,0-5.37,1.465l-14.645,15.622l0,0l0,0
			c-48.33,59.07-82.014,73.715-108.864,85.431c-6.346,2.929-12.204,5.37-17.574,8.299c-27.826,14.645-37.59,24.897-38.566,26.85
			L-6.516,438.447c-0.976,0.976-3.417,3.905-3.905,8.787c-0.976,11.228,8.299,27.338,28.314,47.841
			c0.488,0.488,0.488,0.976,0.976,1.465c0.488,0.488,1.465,0.976,1.953,1.953c0.976,0.976,1.465,1.465,2.441,2.441
			c0.488,0.488,0.976,0.976,1.465,0.976c12.204,10.252,22.456,17.574,31.732,21.48c0,0,0,0,0.488,0
			c5.37,2.441,10.252,3.905,14.645,3.905c0.976,0,1.953,0,2.929,0c4.882-0.976,7.323-3.417,8.299-4.394l104.47-110.817
			c1.465-1.465,11.716-11.716,24.409-40.519c2.441-5.858,4.882-11.716,6.835-18.063c10.252-27.826,22.456-61.999,78.597-113.746
			l0.488-0.488c0,0,0.488,0,0.488-0.488l14.645-15.622c1.465-1.953,1.953-4.394,0.488-6.346
			C295.178,194.358,284.438,190.452,282.973,189.964z M198.518,302.734c0.488,1.465,1.465,2.929,3.417,3.417l22.944,6.835
			c-2.929,5.858-5.37,11.228-7.811,16.11l-30.755-9.275c-1.953-5.858-6.346-21.48-8.299-27.826
			c4.882-2.441,9.764-4.882,15.134-8.299C194.125,288.088,195.589,293.946,198.518,302.734z M27.656,490.682
			c-9.275-9.275-15.622-16.598-20.015-22.944c12.204,2.441,33.196,10.74,42.472,40.519
			C44.254,504.351,36.443,498.981,27.656,490.682z M208.77,349.111c-2.441,6.346-4.394,12.204-6.835,17.574
			c-12.693,28.314-21.968,37.102-21.968,37.102s0,0-0.488,0.488L74.521,515.579c-0.488,0.488,0,0-0.488,0.488
			c-0.976,0.976-4.882,1.953-12.693-0.976c-11.228-50.282-49.306-56.629-60.534-57.117c-3.417-6.835-2.929-10.74-1.953-11.716
			c0.488,0,0.488-0.488,0.976-0.488l104.958-111.793c0,0,8.299-9.764,35.637-24.409c5.37-2.929,10.74-5.37,17.086-7.811
			c3.417-1.465,7.323-2.929,11.228-4.882c1.465,4.394,3.905,12.204,8.299,28.803c0.488,1.465,1.465,2.929,3.417,3.417l32.22,9.764
			C211.699,341.788,210.235,345.693,208.77,349.111z M229.274,304.198l-21.968-6.835c-1.953-6.346-4.394-14.645-5.37-19.039
			c19.039-12.693,41.007-31.732,67.369-62.975c3.417,0.976,11.228,4.394,19.527,17.574
			C258.564,261.238,240.502,284.183,229.274,304.198z M295.178,226.089c-7.323-10.74-14.157-15.622-19.527-18.551l6.835-6.835
			c3.417,2.441,10.252,7.323,19.527,18.551L295.178,226.089z"/>
		<path fill="#ECD7C2" d="M190.707,352.04c-2.441,0-4.882,1.953-5.37,4.394c0,0-2.441,21.968-34.661,52.235
			c-1.953,1.953-1.953,4.882,0,6.835c0.976,0.976,2.441,1.465,3.417,1.465c0.976,0,2.441-0.488,3.417-1.465
			c35.149-33.196,37.59-57.117,37.59-58.093C195.101,354.48,193.148,352.04,190.707,352.04z"/>
		<path fill="#ECD7C2" d="M400.624,113.808l-21.968-20.504c-2.441-2.441-5.37-3.417-8.787-3.417s-6.346,1.465-8.787,3.905
			l-6.835,7.323c-2.441,2.441-3.417,5.37-3.417,8.787c0,2.441,0.976,4.882,1.953,6.835l-12.693,13.669
			c-0.976,0.976-1.465,2.441-1.465,3.417c0,1.465,0.488,2.441,1.465,3.417l18.551,17.574c0.976,0.976,1.953,1.465,3.417,1.465
			c1.465,0,2.441-0.488,3.417-1.465l12.693-13.669c1.953,0.976,3.905,1.953,6.346,1.953h0.488c3.417,0,6.346-1.465,8.787-3.905
			l6.835-7.323c2.441-2.441,3.417-5.37,3.417-8.787C404.53,119.178,403.065,115.761,400.624,113.808z M362.058,144.075
			l-11.228-10.74l9.275-9.764l11.716,10.74L362.058,144.075z M393.79,124.548l-6.835,7.323c-0.488,0.488-0.976,0.976-1.953,0.976
			c-0.488,0-1.465,0-1.953-0.488l-21.968-20.503c-0.488-0.488-0.976-0.976-0.976-1.953c0-0.488,0-1.465,0.976-1.953l6.835-7.323
			c0.488-0.488,0.976-0.976,1.953-0.976c0.488,0,1.465,0,1.953,0.488l21.968,20.504c0.488,0.488,0.976,0.976,0.976,1.953
			C394.766,123.084,394.278,124.06,393.79,124.548z"/>
	</g>
</g>
</svg>
