<?xml version="1.0" encoding="utf-8"?>
<!-- Generator: Adobe Illustrator 17.0.0, SVG Export Plug-In . SVG Version: 6.00 Build 0)  -->
<!DOCTYPE svg PUBLIC "-//W3C//DTD SVG 1.1//EN" "http://www.w3.org/Graphics/SVG/1.1/DTD/svg11.dtd">
<svg version="1.1" id="Layer_1" xmlns:sketch="http://www.bohemiancoding.com/sketch/ns"
	 xmlns="http://www.w3.org/2000/svg" xmlns:xlink="http://www.w3.org/1999/xlink" x="0px" y="0px" width="600px" height="500px"
	 viewBox="-104.663 40.543 600 500" enable-background="new -104.663 40.543 600 500" xml:space="preserve">
<title>signature</title>
<desc>Created with Sketch.</desc>
<g transform="translate(0.000000, -8.000000)" sketch:type="MSArtboardGroup">
	<g>
		<g>
			<path fill="#ECD7C2" d="M431.856,478.234H-48.462c-2.845,0-5.167,2.305-5.167,5.167c0,2.861,2.322,5.167,5.167,5.167h480.319
				c2.85,0,5.167-2.299,5.167-5.167C437.023,480.532,434.706,478.234,431.856,478.234z"/>
			<path fill="#ECD7C2" d="M440.861,88.714c-7.409-4.036-15.902-4.139-23.873-1.714c-9.924,2.981-18.843,9.884-23.425,18.355
				l-7.449,13.723l-9.544-5.087l2.845-5.167c1.351-2.481,0.426-5.649-2.14-6.977c-1.249-0.726-2.703-0.806-3.952-0.403
				c-1.249,0.364-2.361,1.215-3.066,2.543l-56.189,103.631c-1.294,2.543-0.364,5.649,2.135,7.063c2.504,1.409,5.672,0.443,7.04-2.14
				l37.812-69.855l9.424,5.121l-43.847,80.853l-73.603,137.111c-0.482,0.812-0.925,1.896-1.55,3.19l-4.139,12.127
				c-6.699,21.893-14.08,58.296-6.557,71.008l-5.047,9.442c-1.414,2.498-0.443,5.672,2.14,6.977
				c2.543,1.374,5.627,0.443,7.017-2.095l5.251-9.811c1.146-0.159,2.22-0.199,3.429-0.568c20.014-6.013,53.028-44.869,59.971-57.785
				l23.772-44.273l6.977-12.973l42.882-79.842l66.897-123.303C460.772,125.442,457.563,97.633,440.861,88.714z M365.997,133.589
				l5.649-10.435l9.486,5.087l-5.654,10.435L365.997,133.589z M304.38,393.372c-6.574,12.167-37.874,47.901-53.833,52.698
				c-0.545,0.165-0.965,0.283-1.232,0.307c-5.95-10.43,5.893-62.849,12.86-75.748l53.732-100.059l42.246,22.698L304.38,393.372z
				 M362.143,285.744l-42.252-22.636l4.241-7.829l42.19,22.721L362.143,285.744z M444.994,132.925l-66.948,123.303l-7.67,14.308
				l-42.269-22.721l7.665-14.205l46.391-85.491l20.604-37.835c3.145-5.91,9.884-11.178,17.186-13.393
				c5.893-1.778,11.542-1.453,15.999,1.011c4.764,2.498,8.453,8.431,10.128,16.261C447.878,122.353,446.748,129.654,444.994,132.925
				z"/>
		</g>
	</g>
	<path fill="#ECD7C2" d="M21.778,387.535c-4.893-21.26-10.562-30.746-24.111-36.261c2.199-4.148,4.225-8.366,6.089-12.593
		c10.714-24.297,17.132-50.423,20.979-76.637c0.925-6.305-8.709-9.02-9.643-2.658c-3.653,24.888-9.564,49.806-19.433,73.005
		c-1.849,4.345-3.868,8.69-6.083,12.956c-0.141-1.66-0.282-3.32-0.425-4.978c-1.73-20.092-4.479-40.099-7.894-59.97
		c-1.778-10.343-3.543-20.783-6.137-30.955c-2.554-10.014-5.107-19.982-5.264-30.375c-0.098-6.442-10.098-6.452-10,0
		c0.142,9.369,1.993,18.506,4.233,27.573c2.503,10.13,4.616,20.283,6.487,30.552c3.695,20.275,6.507,40.7,8.401,61.221
		c0.662,7.174,1.299,14.37,1.882,21.579c-8.274,12.076-18.663,22.536-31.938,29.107c-5.78,2.861-0.711,11.485,5.047,8.635
		c11.025-5.458,20.245-13.404,28.009-22.706c1.917,28.482,2.567,57.106-0.239,85.446c-0.635,6.417,9.371,6.355,10,0
		c3.217-32.493,1.759-65.224-0.745-97.765c0.561-0.87,1.109-1.748,1.651-2.63c5.617,1.683,6.943,6.315,12.278,12.307
		s26.946,71.688,44.523,79.756s38.481-9.872,51.056-21.879c8.47-8.091,16.522-15.818,25.622-18.543c0.386,3.997,0,9.101-0.34,14.08
		c-0.846,11.542-1.697,23.47,5.025,30.55c11.844,12.508,22.114,2.946,28.228-2.759c3.997-3.736,7.767-7.245,11.605-7.245h0.283
		c2.516,0.12,2.578,0.244,3.526,2.72c0.994,2.56,2.668,6.802,8.215,8.453c4.803,1.391,9.521,0.687,13.699,0.086
		c3.509-0.528,6.796-0.971,9.726-0.283c4.922,1.249,8.091,3.35,12.087,6.013c2.577,1.737,5.308,3.531,8.692,5.251
		c0.75,0.381,1.55,0.563,2.339,0.563c1.879,0,3.691-1.028,4.604-2.821c1.294-2.543,0.283-5.649-2.253-6.943
		c-2.986-1.516-5.371-3.128-7.676-4.638c-4.235-2.821-8.613-5.735-15.255-7.427c-4.923-1.215-9.601-0.528-13.779,0.079
		c-3.571,0.505-6.66,0.971-9.282,0.204c-0.568-0.159-0.664-0.204-1.476-2.26c-1.21-3.106-3.469-8.92-12.712-9.323
		c-8.652-0.602-14.444,5.405-19.411,10.027c-7.829,7.369-9.419,7.727-13.654,3.207c-3.594-3.792-2.867-13.841-2.243-22.698
		c0.625-8.494,1.21-16.527-1.153-22.699c-0.829-2.203-3.288-3.509-5.342-3.31c-14.534,1.493-25.565,12.065-36.222,22.279
		c-11.844,11.315-27.233,25.511-37.732,19.49C45.123,436.295,26.671,408.795,21.778,387.535z"/>
</g>
</svg>
