<?xml version="1.0" encoding="utf-8"?>
<!-- Generator: Adobe Illustrator 16.0.0, SVG Export Plug-In . SVG Version: 6.00 Build 0)  -->
<!DOCTYPE svg PUBLIC "-//W3C//DTD SVG 1.1//EN" "http://www.w3.org/Graphics/SVG/1.1/DTD/svg11.dtd">
<svg version="1.1" id="Layer_1" xmlns="http://www.w3.org/2000/svg" xmlns:xlink="http://www.w3.org/1999/xlink" x="0px" y="0px"
	 width="355.333px" height="468px" viewBox="0 0 355.333 468" enable-background="new 0 0 355.333 468" xml:space="preserve">

<g>
	<g>
		<path d="M-266.462,27.043c0-5.213-2.065-7.573-5.606-7.573c-4.328,0-7.278,3.541-7.278,9.049c0,5.114,2.164,8.557,6.492,14.065
			l17.705,22.327c1.967-2.951,3.934-7.082,3.934-10.426c0-3.541-2.262-6.394-8.852-6.394v-0.886c0,0,8.754,0.394,13.672,0.394
			c5.901,0,12.098-0.394,12.098-0.394v0.886c-12,0-14.853,10.032-20.262,17.606l7.082,9.344c2.852,3.639,7.18,8.262,11.507,8.262
			c0.984,0,1.869-0.295,2.853-0.787l0.394,0.591c0,0-6.786,8.065-18,8.065c-9.442,0-13.278-2.656-18.688-9.147
			c-7.082,6.196-13.868,9.147-21.835,9.147c-11.114,0-16.721-6.492-16.721-14.36c0-11.017,10.032-17.114,20.36-18.59
			c-6-7.181-9.934-13.082-9.934-20.065c0-12.786,14.164-19.573,26.458-19.573c12.787,0,18.688,5.115,18.688,11.114
			c0,5.705-4.623,8.459-9.541,8.459c-2.557,0-5.803-0.885-7.672-2.36C-267.643,33.534-266.462,30.19-266.462,27.043z
			 M-270.003,81.238l-17.016-22.327c-1.279,1.967-1.869,4.721-1.869,7.672c0,8.065,4.623,17.508,12.688,17.508
			C-274.036,84.091-271.38,82.517-270.003,81.238z"/>
	</g>
	<path d="M-431.871,61.221c0,21.3,7.2,26.7,22.501,26.7v3c0,0-26.4-0.9-57.601-0.9c-31.201,0-57.601,0.9-57.601,0.9v-3
		c15.3,0,22.5-14.1,22.5-37.5V-89.381c0-21.3-7.2-26.7-22.5-26.7v-3c0,0,26.4,0.9,57.601,0.9c31.2,0,57.601-0.9,57.601-0.9v3
		c-15.301,0-22.501,14.1-22.501,37.5v63.301h9.601l40.2-45.601c16.2-18,20.101-27.9,20.101-36.9c0-11.7-10.2-18.3-22.501-18.3v-3
		c0,0,17.4,0.9,49.201,0.9c29.7,0,42.601-0.9,42.601-0.9v3c-28.201,0-50.401,14.7-72.602,40.2l-10.8,12.3l77.401,129.902
		c7.199,11.699,13.5,18,24,18l7.741-4.173l12.367-14.45c0,0-4.299,9.183-10.772,14.721c-7.5,6.417-26.436,16.202-55.537,16.202
		c-30.6,0-50.7-10.501-65.4-39.001l-30.9-59.4c-3.6-6.9-7.5-10.5-14.7-10.5V61.221z"/>
	<g>
		<path d="M-193.827-118.181c42.6,0,110.701-0.9,110.701-0.9l-5.4,66.3l-3.301-0.9c0-37.2-19.799-62.101-63-62.101V61.221
			c0,21.3,7.199,26.7,22.5,26.7v3c0,0-26.4-0.9-57.602-0.9c-15.896,0-30.545,0.234-41.093,0.463
			c-10.155,0.221-19.583,0.689-19.583,0.689l3.076-3.252c15.301,0,22.5-14.1,22.5-37.5v-166.202c-37.2,0-60.3,23.7-68.4,63l-3.3-0.9
			l5.4-65.4C-291.329-119.081-249.928-118.181-193.827-118.181z"/>
	</g>
</g>
<path d="M-194.583,129.594c-56.102,0-97.501-0.9-97.501-0.9l-5.4,65.4l3.301,0.9c8.1-39.301,31.201-63.001,68.4-63.001v166.202
	c0,15.342-3.095,26.685-9.538,32.679c-0.46,0.131-0.921,0.204-1.405,0.204c-4.326,0-8.654-4.623-11.508-8.262l-7.082-9.344
	c5.41-7.574,8.264-17.606,20.264-17.606v-0.886c0,0-6.197,0.394-12.1,0.394c-4.918,0-13.672-0.394-13.672-0.394v0.886
	c6.59,0,8.854,2.853,8.854,6.394c0,3.344-1.969,7.475-3.936,10.426l-17.703-22.327c-4.328-5.509-6.492-8.951-6.492-14.065
	c0-5.508,2.951-9.049,7.277-9.049c3.541,0,5.607,2.36,5.607,7.573c0,3.147-1.18,6.491-3.148,8.754
	c1.869,1.476,5.115,2.36,7.672,2.36c4.918,0,9.541-2.754,9.541-8.459c0-5.999-5.9-11.114-18.688-11.114
	c-12.294,0-26.458,6.787-26.458,19.573c0,6.983,3.936,12.885,9.935,20.065l0.591,0.688l17.015,22.327
	c-1.372,1.273-4.8,3.074-7.329,2.92c-8.94-1.003-14.77-7.165-21.337-17.837l-77.401-129.902l10.8-12.3
	c22.2-25.5,44.4-40.2,72.601-40.2v-3c0,0-12.9,0.9-42.6,0.9c-31.801,0-49.201-0.9-49.201-0.9v3c12.301,0,22.501,6.6,22.501,18.3
	c0,9.001-3.9,18.9-20.101,36.9l-40.2,45.601h-9.601v-63.301c0-23.4,7.2-37.5,22.501-37.5v-3c0,0-26.4,0.9-57.601,0.9
	c-31.201,0-57.601-0.9-57.601-0.9v3c15.3,0,22.5,5.4,22.5,26.7v139.802c0,23.4-7.2,37.5-22.5,37.5v3c0,0,26.4-0.9,57.601-0.9
	c31.2,0,57.601,0.9,57.601,0.9v-3c-15.301,0-22.501-5.4-22.501-26.7v-73.501c7.2,0,11.101,3.6,14.7,10.5l30.9,59.4
	c14.7,28.5,34.801,39.001,65.4,39.001c25.5,0,43.192-7.513,52.227-13.689c5.02,5.827,8.931,8.241,17.917,8.241
	c0.043,0,0.083-0.005,0.126-0.006l-0.005,0.006c0,0,9.428-0.469,19.584-0.689c10.547-0.229,25.197-0.463,41.092-0.463
	c31.201,0,57.602,0.9,57.602,0.9v-3c-15.301,0-22.5-5.4-22.5-26.7V131.993c43.201,0,63,24.9,63,62.101l3.301,0.9l5.4-66.301
	C-83.882,128.693-151.983,129.594-194.583,129.594z"/>
<g>
	<g>
		<path d="M-306.552,565.835c0,2.759,7.188,7.688,10.25,9.5c4.706,2.785,3.531,3.156,10.188,3.599
			c2.531,0.168,5.979-1.643,7.355-2.921l-17.015-22.327l-0.591-0.688c-5.999-7.181-9.935-13.082-9.935-20.065
			c0-12.786,14.164-19.573,26.458-19.573c12.787,0,18.688,5.115,18.688,11.114c0,5.705-4.623,8.459-9.541,8.459
			c-2.557,0-5.803-0.885-7.672-2.36c1.969-2.263,3.148-5.606,3.148-8.754c0-5.213-2.066-7.573-5.607-7.573
			c-4.326,0-7.277,3.541-7.277,9.049c0,5.114,2.164,8.557,6.492,14.065l17.703,22.327c1.967-2.951,3.936-7.082,3.936-10.426
			c0-3.541-2.264-6.394-8.854-6.394v-0.886c0,0,8.754,0.394,13.672,0.394c5.902,0,12.1-0.394,12.1-0.394v0.886
			c-12,0-14.854,10.032-20.264,17.606l7.082,9.344c2.854,3.639,7.182,8.262,11.508,8.262c0.984,0,1.869-0.295,2.854-0.787
			l0.393,0.591c0,0-6.785,8.065-18,8.065c-9.441,0-13.277-2.656-18.688-9.147c-7.082,6.196-13.868,9.147-21.835,9.147
			c-11.113,0-16.72-6.492-16.72-14.36c0-9.24-2.728-11.538,5.642-14.033"/>
	</g>
	<path d="M-440.626,555.995c0,21.3,7.2,26.7,22.501,26.7v3c0,0-26.4-0.9-57.601-0.9c-31.201,0-57.601,0.9-57.601,0.9v-3
		c15.3,0,22.5-14.1,22.5-37.5V405.394c0-21.3-7.2-26.7-22.5-26.7v-3c0,0,26.4,0.9,57.601,0.9c31.2,0,57.601-0.9,57.601-0.9v3
		c-15.301,0-22.501,14.1-22.501,37.5v63.301h9.601l40.2-45.601c16.2-18,20.101-27.899,20.101-36.9c0-11.7-10.2-18.3-22.501-18.3v-3
		c0,0,17.4,0.9,49.201,0.9c29.7,0,42.6-0.9,42.6-0.9l2.466,1.767c-28.201,0-52.867,15.934-75.067,41.434l-10.8,12.3l77.401,129.902
		c7.199,11.699,13.5,18,24,18l7.742-4.173l12.365-14.45c0,0-4.299,9.183-10.771,14.721c-7.5,6.417-26.435,16.202-55.536,16.202
		c-30.6,0-50.7-10.501-65.4-39.001l-30.9-59.4c-3.6-6.9-7.5-10.5-14.7-10.5V555.995z"/>
	<g>
		<path d="M-202.583,376.594c42.6,0,110.701-0.9,110.701-0.9l-5.4,66.301l-3.301-0.9c0-37.2-19.799-62.101-63-62.101v177.002
			c0,21.3,7.199,26.7,22.5,26.7v3c0,0-26.4-0.9-57.602-0.9c-15.895,0-30.545,0.234-41.092,0.463
			c-10.156,0.221-19.584,0.689-19.584,0.689l3.076-3.252c15.301,0,22.5-14.1,22.5-37.5V378.993
			c-37.199,0-80.674-6.324-103.974,8.998l-7.575-10.281l45.249-2.017C-300.084,375.693-258.685,376.594-202.583,376.594z"/>
	</g>
</g>
<g>
	<path fill="#FFFFFF" d="M336,8.772H19.619c-6.627,0-12,5.373-12,12V126.88c9.091,0.154,19.89,0.275,31.343,0.275
		c31.2,0,57.601-0.9,57.601-0.9v3c-15.301,0-22.501,14.1-22.501,37.5v63.301h9.601l40.2-45.6c16.2-18,20.101-27.9,20.101-36.9
		c0-11.701-10.2-18.301-22.501-18.301v-3c0,0,17.4,0.9,49.201,0.9c29.699,0,42.6-0.9,42.6-0.9v3c-28.2,0-50.4,14.701-72.601,40.201
		l-10.8,12.299l77.4,129.902c6.567,10.672,12.396,16.834,21.338,17.838c2.528,0.154,5.956-1.646,7.328-2.92l-17.016-22.328
		l-0.59-0.688c-6-7.182-9.936-13.082-9.936-20.066c0-12.785,14.164-19.572,26.459-19.572c12.787,0,18.688,5.115,18.688,11.113
		c0,5.705-4.623,8.459-9.541,8.459c-2.557,0-5.803-0.885-7.672-2.359c1.969-2.264,3.148-5.607,3.148-8.754
		c0-5.213-2.066-7.574-5.607-7.574c-4.326,0-7.277,3.541-7.277,9.049c0,5.115,2.164,8.557,6.492,14.066l17.703,22.326
		c1.967-2.951,3.936-7.082,3.936-10.426c0-3.541-2.264-6.393-8.854-6.393v-0.887c0,0,8.754,0.395,13.672,0.395
		c5.902,0,12.1-0.395,12.1-0.395v0.887c-12,0-14.854,10.031-20.264,17.605l7.082,9.344c2.854,3.639,7.182,8.262,11.508,8.262
		c0.484,0,0.945-0.072,1.405-0.203c6.443-5.994,9.538-17.338,9.538-32.68V129.556c-37.199,0-60.301,23.699-68.4,63l-3.301-0.9
		l5.4-65.4c0,0,41.4,0.9,97.502,0.9c10.83,0,23.308-0.059,35.896-0.146V20.772C348,14.146,342.628,8.772,336,8.772z"/>
	<path fill="#FFFFFF" d="M274.911,335.819c-10.156,0.221-19.584,0.689-19.584,0.689l0.006-0.006
		c-0.043,0.002-0.084,0.006-0.127,0.006c-8.985,0-12.896-2.414-17.916-8.24c-9.035,6.176-26.729,13.689-52.228,13.689
		c-30.6,0-50.7-10.502-65.4-39.002l-30.9-59.4c-3.6-6.9-7.5-10.5-14.7-10.5v73.502c0,21.299,7.2,26.699,22.501,26.699v3
		c0,0-26.4-0.9-57.601-0.9c-11.453,0-22.252,0.121-31.343,0.275V447.44c0,6.627,5.373,12,12,12H336c6.628,0,12-5.373,12-12V335.643
		c-9.224-0.159-20.271-0.286-31.997-0.286C300.108,335.356,285.458,335.591,274.911,335.819z"/>
</g>
</svg>
