<?xml version="1.0" encoding="utf-8"?>
<!-- Generator: Adobe Illustrator 17.0.0, SVG Export Plug-In . SVG Version: 6.00 Build 0)  -->
<!DOCTYPE svg PUBLIC "-//W3C//DTD SVG 1.1//EN" "http://www.w3.org/Graphics/SVG/1.1/DTD/svg11.dtd">
<svg version="1.1" xmlns="http://www.w3.org/2000/svg" xmlns:xlink="http://www.w3.org/1999/xlink" x="0px" y="0px"
	 width="1809.165px" height="495.831px" viewBox="0 0 1809.165 495.831" enable-background="new 0 0 1809.165 495.831"
	 xml:space="preserve">
<g id="Layer_1">
	<path fill="#010101" d="M1809.163,312.479c0-3.023-0.041-6.046-0.063-9.069c-4.027-4.412-6.971-9.366-7.076-15.511
		c-0.037-2.158-1.003-2.867-2.859-2.992c-2.062-0.139-3.23,0.601-3.939,2.784c-0.7,2.152,0.487,4.922-3.14,6.375
		c-2.505,1.003-4.791,1.621-7.344,1.624c-2.863,0.003-5.596,0.178-7.985,2.091c-2.625,2.103-5.85,1.074-8.793,1.31
		c-9.034,0.726-10.811,1.836-11.125-2.726c-32.135,0.185-63.764,0.777-96.101-0.052c-4.829-0.966-10.625-2.898-13.522-4.829
		c-11.105-7.014-22.559-12.619-33.302-19.158c-0.222,0.005-0.437,0.011-0.675,0.014c-9.42,0.131-18.844,0.014-28.266-0.022
		c-3.623-0.014-7.083,0.085-10.532,1.869c-1.967,1.018-3.177,1.819-3.847,3.993c-0.964,3.126-3.617,3.88-6.54,2.282
		c-2.757-1.506-3.874-4.246-4.969-7.255c-1.435,3.315-3.456,5.725-5.277,8.217c-1.506,2.06-3.285,3.78-6.456,3.702
		c-3.878-0.095-4.087,0.386-3.334,4.219c0.333,1.698,1.019,3.291-1.37,3.708c-1.919,0.336-2.982-0.699-3.256-2.648
		c-1.159-8.233-5.905-15.392-7.111-23.62c-0.114-0.777-0.519-1.519-0.836-2.257c-0.329-0.764-0.84-1.445-1.717-1.511
		c-1.233-0.093-1.72,0.845-2.023,1.823c-0.595,1.921-1.12,3.863-1.681,5.794c-1.562,5.382-2.245,10.983-4.81,16.132
		c-1.101,2.21-0.736,5.124-1.184,7.693c-0.68,3.902-2.054,5.053-6.035,5.223c-3.872,0.166-7.666-0.087-11.442-1.238
		c-1.268-0.387-1.641-1.046-1.814-1.906c-0.354-1.761-0.593-3.57-0.634-5.365c-0.09-4.028,0.008-8.06-0.05-12.089
		c-0.023-1.57,0.133-3.52-2.237-3.486c-2.016,0.029-3.439,1.138-3.696,3.255c-0.169,1.394-0.107,2.815-0.16,4.224
		c-0.196,5.164-0.196,5.269-5.567,5.334c-7.453,0.09-14.909-0.022-22.363-0.003c-7.766,0.02-15.555-1.117-23.298,0.518
		c-1.351,0.285-2.817-0.02-4.222,0.068c-2.711,0.171-4.326-0.812-4.055-3.756c0.279-3.03-1.314-3.924-3.994-3.709
		c-0.2,0.016-0.404,0.015-0.604-0.001c-4.16-0.34-8.319-0.683-12.479-1.025c-1.22-4.197-2.706-8.319-3.424-12.658
		c-0.36-2.174-0.941-4.312-1.542-7.004c-1.61,2.025-1.715,4.061-2.027,6.029c-0.251,1.586-0.31,3.323-1.454,4.521
		c-0.62,0.649-1.764,1.062-2.682,1.082c-0.843,0.019-0.925-1.099-1.166-1.832c-0.937-2.849-0.778-5.992-2.618-9.503
		c-1.984,3.419-1.885,6.807-2.637,9.878c-1.344,5.493-1.232,5.541-6.626,5.606c-2.82,0.034-5.645,0.056-8.462-0.058
		c-3.929-0.159-4.291-0.629-4.659-4.616c-0.904-9.803-1.853-19.602-2.792-29.484c-1.953,0.923-1.559,2.705-1.707,4.169
		c-0.868,8.613-1.771,17.224-2.412,25.855c-0.234,3.154-1.61,4.156-4.58,4.107c-6.312-0.104-12.626-0.083-18.939-0.125
		c-1.029,0.561-2.255,1.054-3.791,1.493c0.966,1.932-0.927,3.863-0.927,5.795c-5.795,0-11.381,0.966-16.381,0
		c0-0.966,0-2.898,0-3.863c-8,0.966-15.102-1.932-19.932-3.863c-4.829-1.932-12.068-2.898-16.068-4.829c0-0.966,0-2.898,0-3.863
		c-1-0.966-4.253,0.966-5.219,0c-2.738-2.282-5.458-4.557-8.172-6.329c-0.156,0.628-0.425,1.25-0.645,1.854
		c-0.702,1.923-1.743,3.039-3.942,3.02c-14.905-0.128-29.835-0.197-44.74-0.31c-0.372-0.003-0.753-0.296-1.122-0.454
		c-1.057,0.013-2.121,0.026-3.179,0.039c-1.955,0.977-4.397,0.113-6.21,1.63c-0.785,2.273-1.589,4.541-2.354,6.822
		c-1.01,3.01-2.169,5.917-3.618,8.681c-1.377,2.628-3.016,5.128-5.054,7.455c-1.922,2.194-3.97,2.964-6.272,2.335
		c-2.263-0.619-1.621-3.196-1.233-4.709c0.794-3.098,0.492-6.283,0.47-9.46c-0.887,0.05-1.709,0.05-2.709,0.05
		c0,0.966,0,2.898,0,3.863c-4,0.638-9.527,2.96-13.174,1.4c0.386,2.617,0.583,5.276,0.56,7.955c-0.023,2.622,0.388,5.63-2.853,6.345
		c-2.563,0.565-4.183-1.437-5.198-3.724c0,0.001-0.008-0.215-0.008-0.215c-0.753-0.487-0.701-0.993-0.029-1.514
		c-0.213-0.494-0.422-0.988-0.635-1.482c-2.337-0.012-3.401-0.94-2.411-3.35c-0.621-3.462-3.626-3.232-4.771-1.649
		c-2.155,2.979-4.812,2.311-7.51,2.498c-3.763,0.261-7.573-0.462-11.301,0.682c-1.89,0.58-2.624-0.599-2.519-2.277
		c0.077-1.229,0.083-2.454,0.05-3.676c-4.497,1.938-8.9,3.718-12.487,5.767c-21.249,11.59-54.089,17.386-71.474-2.898
		c-0.966-0.966-4.829,0.966-6.761,0c-0.966-0.966-1.932-2.898-2.898-3.863c-6.761-1.932-7.727,5.861-11.59,6.827
		c-12.556,4.829-31.874,5.441-37.669-10.559c-0.966,0-2.323,0-3.323,0c0-1,0-2.063,0-3.029c-1-0.966-4.134,0-5.1,0
		c-3.864,12.556-9.794,21.249-23.316,17.386c2.898-6.761-7.795-0.966-6.829-8.693c-3.864,0-9.693,0.966-11.624-0.966
		c-4.829-2.898-7.744-10.625-11.607-11.59c-3.448-0.985-7.031-1.656-10.57-2.318c-0.015,1.254-0.037,2.508-0.067,3.762
		c-0.066,2.767,0.23,5.624-0.993,8.254c-5.309-2.127-10.584,0.441-15.895,0.224c-1.32-0.054-1.437,1.554-1.869,2.708
		c-0.872,2.333-4.822,3.152-5.504,1.115c-1.447-4.327-5.125-2.815-7.639-4.264c-1.831,5.126-1.841,4.942-6.687,5.197
		c-3.365,0.177-6.261-1.54-9.373-1.809c-3.871-0.334-3.494-2.251-2.86-4.981c1.458,0.134,2.826,0.358,4.195,0.36
		c1.822,0.003,2.311-1.244,2.37-2.83c0.058-1.569-0.304-2.582-2.119-3.023c-0.768-0.187-1.399-0.346-1.937-0.501
		c-7.31,7.637-17.577,12.495-28.963,15.491c-0.966,0.966-0.966,2.898-1.932,3.863c-9.659,3.863-11.59-6.761-14.488-14.488
		c0-0.966-3.75,0-3.75-0.966c-2.898-3.863-7.443-6.761-12.443-7.727c0,0.966,0,2.824,0,3.824c-1,0-3,0-4,0c0,1,0,2.937,0,3.903
		c-3,1.932-5.84-2.898-8.738-1.932c-0.966-1.932-0.988-2.898-4.852-4.829c-1.251-0.751-2.384-1.763-3.477-2.847
		c-0.137,0.642-0.393,1.276-0.713,1.904c-0.309,2.068,0.552,4.308-0.918,6.205c-0.451,1.184-0.911,1.238-1.378,0.011
		c-0.346-0.279-0.694-0.559-1.041-0.84c-6.792,1.456-13.548,1.914-20.187-0.742c-0.304-0.24-0.519-0.545-0.642-0.913
		c-0.74-0.193-1.038-0.642-0.809-1.394c-0.137-1.152-0.275-2.306-0.412-3.459c-1.161-0.454-2.269-0.952-2.053-2.525
		c0,0.001-0.079-0.21-0.079-0.21c-1.36-0.771-1.905-2.043-1.816-3.491c0.236-3.838-2.114-5.174-5.332-5.755
		c-0.475,0.989-1.489,1.856-2.326,1.594c-5.256-1.649-11.18,0.217-16.119-3.233c-1.536-1.073-4.218-2.451-5.304-0.395
		c-1.706,3.229-4.231,2.456-6.669,2.516c-4.408,0.109-8.839,0.297-13.226-0.02c-3.848-0.277-6.592,1.018-8.608,4.173
		c-1.789,2.243-3.044,5.046-6.173,5.882c-0.059,0.402-0.119,0.803-0.179,1.205c0.407,0.749,0.203,1.28-0.572,1.608
		c-0.631,0.992-1.053,2.207-2.477,2.367c-1.226-0.966-0.543-2.25-0.546-3.361c-0.004-1.375,0.02-2.752,0.052-4.13
		c-3.851,4.482-8.31,8.26-13.956,10.68c0-1.932,0.966-4.829,0-5.795c-5.795-5.795-7.727-14.488-12.556-20.283
		c-3.863-3.863-12.556-8.693-16.42-4.829c-3.863,4.829-0.966,15.454-6.761,18.352c-6.761,3.863-14.488-3.863-22.215-9.659
		c-0.966,0,0.966-3.863,0-5.795c-1.932-0.966-5.795-0.966-5.795,0c-5.795,12.556-16.42,16.42-28.976,16.42
		c-2.898,0-3.864,5.795-5.795,6.761c-14.488,9.659-19.317,25.113-28.976,36.703c-4.829,4.829-7.727-5.795-12.556-9.659
		c-0.966-0.966,0.966-4.829,0-6.761c-3.863-3.863-4.829-10.625-7.727-14.488c-6.761-9.659-20.283-4.829-30.908-7.727
		c-0.797-0.398-1.761-1.124-2.887-1.84c-0.619-0.393-1.284-0.784-2.002-1.116c-0.416,0.555-0.827,1.111-1.243,1.666
		c-6.955,9.293-13.782,18.61-20.52,27.936c6.736-9.326,13.555-18.642,20.509-27.935c-1.448,0.196-2.934,0.322-4.482,0.322
		c-0.966,0-0.966,2.898-1.932,3.863c-10.625,2.898-18.352,8.693-28.01,8.693c-58.918,2.898-117.836-0.966-177.72,0.966
		c-3.863,0-4.829-7.727-10.625-5.795c0-1.932,0.966-4.829,0-5.795c-4.829-2.898-12.556-4.73-16.42-1.832
		c-2.898,1.932,0,7.656-0.966,12.656c0,0-1.932,0-2.898,0c-15.454,13-47.328,3.764-68.577,4.73c-5.795,0-12.556-5.845-16.42-10.674
		c-1.932-1.932-6.761-2.923-4.829-6.786c-4.829,0-11.59-3.876-15.454,1.919c-4.829,9.659-19.317,12.55-27.044,21.243
		c-0.966,1.932-1.932,4.826-2.898,5.792c-6.761,2.898-12.278-2.899-16.142-3.865c-37.161-8.642-75.205-4.144-111.205-3.792
		c0,74.852,0,149.705,0,224.557l330.255-3.176l1083.594-10.413l394.829-3.794C1809.234,434.714,1809.164,373.596,1809.163,312.479z"
		/>
</g>
<g id="Layer_2" display="none">
	<path display="inline" fill="#010101" d="M489.283,232.045c-0.392,0.803-0.956,1.35-2.018,1.094
		c-2.427-0.585-4.721,0.167-7.076,0.061c-2.593-0.116-3.862-2.354-5.423-3.776c-5.155,4.528-5.389,4.458-7.187-1.345
		c-0.274-0.885-0.244-1.993-1.347-2.467c-1.691,0.62-1.461,2.25-1.773,3.54c-0.482,1.997-1.463,3.199-3.691,3.231
		c-2.284,0.033-2.433-1.691-2.857-3.2c-0.833-2.964-1.623-5.94-2.745-10.07c-1.84,3.105-2.13,5.435-2.716,7.645
		c-1.411,5.323-1.409,5.348-6.735,5.318c-13.078-0.073-26.157-0.161-39.213-1.026c-7.816-0.518-15.592,1.049-23.363,0.516
		c-6.178-0.424-10.106,1.819-13.248,7.145c-2.615,4.432-6.006,8.694-12.251,8.318c-1.802-0.108-3.045,1.114-3.786,2.588
		c-1.081,2.15-0.982,2.184-2.372,2.262c-2.411,0.135-4.82,0.415-7.231,0.422c-20.915,0.056-41.827-0.348-62.745,0.114
		c-14.893,0.328-29.797,0.193-44.695,0.264c-1.41,0.007-2.819,0.031-4.229,0.008c-1.524-0.024-1.405-1.043-2.012-2.112
		c-1.62-2.854,0.897-5.373-0.594-8.262c-1.328-2.575-0.752-6.21-0.744-9.376c0.01-4.083-0.838-8.047,2.106-12.063
		c1.412-1.927-0.158-6.1-0.533-9.237c-0.098-0.825-1.135-1.05-1.903-1.243c-1.17-0.294-2.683-0.144-3.468-0.839
		c-1.372-1.214-4.21-2.556-2.986-4.488c1.483-2.341,1.062-4.556,1.31-6.862c0.339-3.15,0.021-6.505,2.866-8.864
		c0.917-0.761,0.824-1.643,0.213-2.649c-1.827-3.009-4.705-5.792-2.086-9.821c0.442-0.68-0.622-1.346-0.937-2.038
		c-0.877-1.927-2.929-2.598-4.275-3.964c3.543-5.613,3.352-9.265-0.681-14.708c-0.749-0.126-1.288-0.401-0.932-1.309
		c-0.177-0.223-0.327-0.467-0.448-0.73c-0.586,0.08-0.77-0.118-0.455-0.658c-0.183-0.367-0.368-0.736-0.553-1.105
		c-1.682-1.058-2.065-2.631-1.769-4.463c-0.149-0.663-0.302-1.335-0.455-2.006c-1.466-0.658-0.558-2.784-2.535-3.576
		c-2.59,3.741-1.504,9.419-5.817,12.316c-0.138,0.256-0.298,0.498-0.481,0.725c-0.357,1.528-1.302,2.532-2.75,3.088
		c-0.947,4.277-1.781,8.536,2.404,11.868c-1.616,1.346-3.007,2.405-4.276,3.595c-1.031,0.967-2.049,2.467-1.321,3.64
		c1.853,2.988,0.015,4.893-1.533,6.927c-0.88,1.156-1.912,2.252-0.664,3.649c4.828,5.398,3.046,11.978,3.334,18.187
		c0.067,1.454-1.052,2.01-2.094,2.601c-0.469,1.402-1.449,1.319-2.551,0.878c-2.78,2.771-1.371,6.633-2.52,9.835
		c-0.081,0.226,0.323,0.765,0.629,0.969c2.827,1.888,2.542,4.779,2.532,7.602c-0.026,7.376-0.136,14.733-1.259,22.064
		c-0.17,1.108,0.853,2.119-1.132,2.1c-1.286-0.013-2.321-0.123-2.695-1.705c-0.33-1.393,1.191-2.616,0.071-4.24
		c-5.446-0.031-11.087-0.732-16.596,0.287c-3.474,0.643-8.204-1.347-10.058,3.935c-0.299,0.853-1.853,0.481-2.839,0.455
		c-2.82-0.076-5.639-0.21-8.458-0.325c-18.724-0.77-37.453-1.452-56.169-2.388c-3.578-0.179-5.661,0.787-6.952,4.183
		c-0.921,2.422-2.375,4.668-3.777,6.875c-3.057,4.813-3.11,4.794-8.224,2.665c-2.97-1.237-5.989-2.383-8.863-3.816
		c-2.355-1.174-4.37-1.003-6.877-0.161c-6.856,2.302-13.762,4.919-20.859,5.927c-9.154,1.3-17.475,4.563-25.823,8.074
		c-2.782,1.17-5.562,2.345-8.36,3.474C0.006,278.714,0,278.704,0,287.064c0,75.384,0,150.767,0,226.151l330.533-3.176
		c62.964-77.703,115.474-163.008,178.133-246.332C498.012,255.273,492.359,244.234,489.283,232.045z"/>
</g>
<g id="Layer_4" display="none">
	<path display="inline" fill="#010101" d="M1809.163,312.479c0-3.023-0.041-6.046-0.063-9.069
		c-4.027-4.412-6.971-9.366-7.076-15.511c-0.037-2.158-1.003-2.867-2.859-2.992c-2.062-0.139-3.23,0.601-3.939,2.784
		c-0.7,2.152,0.487,4.922-3.14,6.375c-2.505,1.003-4.791,1.621-7.344,1.624c-2.863,0.003-5.596,0.178-7.985,2.091
		c-2.625,2.103-5.85,1.074-8.793,1.31c-12.393,0.996-11.132,2.726-11.166-10.476c-0.001-0.403-0.014-0.806-0.001-1.209
		c0.096-3.055,0.483-6.83-2.88-7.887c-3.51-1.104-7.86-2.806-10.832,1.688c-0.507,0.766-1.282,0.915-2.099,0.571
		c-1.151-0.485-1.145-1.586-1.144-2.566c0.01-6.044,0.06-12.088,0.113-18.132c0.028-3.224,0.011-6.45,0.153-9.67
		c0.131-2.975-1.021-4.632-4.139-4.502c-11.459,0.478-22.924-1.683-34.388,0.129c-1.972,0.312-4.021,0.118-6.032,0.206
		c-4.587,0.2-4.803,0.351-4.908,4.811c-0.123,5.236-0.112,10.475-0.143,15.713c-0.029,4.805-0.026,4.895-4.555,4.916
		c-8.462,0.04-16.925-0.026-25.387-0.052c-0.604-0.002-1.356,0.191-1.79-0.09c-5.15-3.342-10.69-0.981-16.025-1.029
		c-3.197-0.029-4.274-1.092-4.299-4.152c-0.052-6.406,1.772-12.698,0.936-19.16c-0.358-2.769,0.113-5.618-2.464-7.728
		c-1.31-1.072-1.189-2.893-1.441-4.49c-1.248-7.915-2.568-15.819-4.625-23.74c-1.338,7.784-2.67,15.57-4.017,23.352
		c-0.239,1.381-0.071,3.217-0.893,4.049c-4.893,4.947-2.614,11.459-3.919,17.154c-0.381,1.664,0.112,3.505-1.22,5.01
		c-1.139,1.287-1.309,2.905-1.191,4.554c0.383,5.337-0.347,5.895-6.366,5.978c-9.42,0.131-18.844,0.014-28.266-0.022
		c-3.623-0.014-7.083,0.085-10.532,1.869c-1.967,1.018-3.177,1.819-3.847,3.993c-0.964,3.126-3.617,3.88-6.54,2.282
		c-2.757-1.506-3.874-4.246-4.969-7.255c-1.435,3.315-3.456,5.725-5.277,8.217c-1.506,2.06-3.285,3.78-6.456,3.702
		c-3.878-0.095-4.087,0.386-3.334,4.219c0.333,1.698,1.019,3.291-1.37,3.708c-1.919,0.336-2.982-0.699-3.256-2.648
		c-1.159-8.233-5.905-15.392-7.111-23.62c-0.114-0.777-0.519-1.519-0.836-2.257c-0.329-0.764-0.84-1.445-1.717-1.511
		c-1.233-0.093-1.72,0.845-2.023,1.823c-0.595,1.921-1.12,3.863-1.681,5.794c-1.562,5.382-2.245,10.983-4.81,16.132
		c-1.101,2.21-0.736,5.124-1.184,7.693c-0.68,3.902-2.054,5.053-6.035,5.223c-3.872,0.166-7.666-0.087-11.442-1.238
		c-1.268-0.387-1.641-1.046-1.814-1.906c-0.354-1.761-0.593-3.57-0.634-5.365c-0.09-4.028,0.008-8.06-0.05-12.089
		c-0.023-1.57,0.133-3.52-2.237-3.486c-2.016,0.029-3.439,1.138-3.696,3.255c-0.169,1.394-0.107,2.815-0.16,4.224
		c-0.196,5.164-0.196,5.269-5.567,5.334c-7.453,0.09-14.909-0.022-22.363-0.003c-7.766,0.02-15.555-1.117-23.298,0.518
		c-1.351,0.285-2.817-0.02-4.222,0.068c-2.711,0.171-4.326-0.812-4.055-3.756c0.279-3.03-1.314-3.924-3.994-3.709
		c-0.2,0.016-0.404,0.015-0.604-0.001c-4.16-0.34-8.319-0.683-12.479-1.025c-1.22-4.197-2.706-8.319-3.424-12.658
		c-0.36-2.174-0.941-4.312-1.542-7.004c-1.61,2.025-1.715,4.061-2.027,6.029c-0.251,1.586-0.31,3.323-1.454,4.521
		c-0.62,0.649-1.764,1.062-2.682,1.082c-0.843,0.019-0.925-1.099-1.166-1.832c-0.937-2.849-0.778-5.992-2.618-9.503
		c-1.984,3.419-1.885,6.807-2.637,9.878c-1.344,5.493-1.232,5.541-6.626,5.606c-2.82,0.034-5.645,0.056-8.462-0.058
		c-3.929-0.159-4.291-0.629-4.659-4.616c-0.904-9.803-1.853-19.602-2.792-29.484c-1.953,0.923-1.559,2.705-1.707,4.169
		c-0.868,8.613-1.771,17.224-2.412,25.855c-0.234,3.154-1.61,4.156-4.58,4.107c-8.461-0.14-16.926-0.054-25.388-0.196
		c-4.073-0.068-4.56-0.423-4.297-4.67c0.42-6.755-1.318-12.901-3.814-19.46c-3.259,3.349-2.152,7.903-5.648,11.645
		c-0.131-6.729-0.431-12.45-0.316-18.163c0.267-13.293-0.825-26.583-0.026-39.872c0.242-4.037-2.671-7.008-2.885-11.581
		c-2.703,1.693-2.754,3.814-3.56,5.445c-0.515,1.042-0.543,2.609-1.978,2.78c-1.782,0.213-2.256-1.496-2.81-2.673
		c-2.416-5.141-6.466-9.188-9.271-14.062c-0.39-0.677-1.034-1.207-2.062-2.373c-2.196,6.447-8.403,9.766-10.15,16.204
		c-0.365,1.344-1.193,3.286-3.155,3.171c-1.75-0.103-1.662-2.052-2.316-3.216c-0.573-1.019-0.43-2.41-2.068-3.41
		c-2.173,4.167-4.01,8.073-3.909,13.142c0.333,16.698,0.125,33.407,0.125,50.666c-3.007-1.246-1.93-4.266-3.89-5.611
		c-1.69,2.61-1.744,5.731-2.756,8.506c-0.702,1.923-1.695,3.039-3.893,3.02c-14.905-0.128-29.811-0.197-44.716-0.31
		c-0.371-0.003-0.741-0.296-1.11-0.454c-1.057,0.013-2.115,0.026-3.173,0.039c-1.955,0.977-4.394,0.113-6.207,1.63
		c-0.785,2.273-1.588,4.541-2.353,6.822c-1.01,3.01-2.169,5.917-3.617,8.681c3.089,5.49,7.256,10.621,10.812,15.955
		c53.8,82.115,118.671,139.33,190.1,201.382l394.899-3.794C1809.165,434.714,1809.164,373.596,1809.163,312.479z"/>
</g>
<g id="Layer_3" display="none">
	<path display="inline" fill="#010101" d="M1414.266,499.625c-71.429-62.052-136.301-119.267-190.1-201.382
		c-3.556-5.334-7.723-10.465-10.812-15.955c-1.377,2.628-3.016,5.128-5.054,7.455c-1.922,2.194-3.97,2.964-6.271,2.335
		c-2.263-0.619-1.621-3.196-1.233-4.709c1.743-6.8-0.599-14.022,2.272-20.66c0.366-0.848,0.018-1.549-0.366-2.246
		c-3.283-5.949-4.809-12.728-8.696-18.39c-0.875-0.424-1.755-0.41-2.64-0.035c-0.642,3.042-2.061,5.783-3.341,8.579
		c0.358,0.269,0.402,0.585,0.075,0.889c-0.111,0.103-0.323,0.098-0.489,0.142c-0.387,0.912-0.774,1.825-1.16,2.738
		c0.417,1.113,0.119,1.926-1.002,2.394c-0.298,0.707-0.596,1.415-0.895,2.123c-0.432,2.061-0.95,4.075,0.272,6.126
		c0.466,0.783,0.39,1.887-0.492,2.629c-0.016,2.054-0.032,4.11-0.049,6.165c1.61,4.317,1.823,8.809,1.783,13.355
		c-0.023,2.622,0.326,5.63-2.915,6.345c-2.562,0.565-4.214-1.437-5.228-3.724c0,0.001-0.023-0.215-0.023-0.215
		c-0.753-0.487-0.708-0.993-0.036-1.514c-0.213-0.494-0.426-0.988-0.638-1.482c-2.337-0.012-3.403-0.94-2.413-3.35
		c-0.621-3.462-3.627-3.232-4.772-1.649c-2.156,2.979-4.812,2.311-7.511,2.498c-3.763,0.261-7.573-0.462-11.302,0.682
		c-1.89,0.58-2.624-0.599-2.519-2.277c0.518-8.283-1.9-16.401-1.544-24.618c0.276-6.372-1.227-12.538-0.77-19.012
		c-3.351-0.021-6.386-1.166-8.816,1.678c-0.394,0.461-1.52,0.413-2.305,0.404c-7.243-0.089-14.485-0.261-21.729-0.318
		c-2.1-0.017-2.84-1.03-2.857-2.956c-0.033-3.62-0.247-7.244-0.131-10.858c0.091-2.853-1.422-3.344-3.758-3.264
		c-2.198,0.075-3.994,0.28-3.834,3.256c0.15,2.805,0.051,5.634-0.113,8.442c-0.308,5.263-0.361,5.34-5.602,5.309
		c-7.218-0.043-14.47-0.451-21.634-0.5c-7.185-0.049-14.46-0.628-21.636,0.068c-3.14,0.305-5.242-2.861-7.732-2.071
		c-2.891,0.917-5.631,1.82-8.698,1.794c-6.84-0.06-13.681,0.079-20.52-0.008c-1.893-0.024-4.113,0.576-5.436-1.632
		c-0.439-0.732-1.121-1.235-1.687-0.168c-0.96,1.807-2.63,1.615-4.205,1.623c-6.842,0.032-13.685,0.028-20.528,0.014
		c-1.186-0.002-2.787,0.339-3.371-0.774c-1.718-3.271-4.404-1.411-6.754-1.509c-1.001-2.771-0.992-5.565-0.478-8.362
		c1.023-5.566,1.255-11.297,0.549-16.763c-1.372-10.631-1.06-21.241-1.075-31.871c-0.007-4.853-0.654-9.526-2.681-13.979
		c-0.568-1.247-1.505-2.408-1.281-3.927c-0.757-0.258-1.504-0.516-2.123,0.297c-0.65,0.853-0.718,2.841-2.202,2.137
		c-1.1-0.522-1.609-2.173-0.756-3.623c-0.201-0.663-0.402-1.326-0.603-1.989c-1.049-0.929-1.403-1.986-0.6-3.257
		c-0.161-0.689-0.322-1.379-0.483-2.068c-2.739-2.48-1.562-5.849-2.008-8.85c0.036-3.436,0.072-6.872,0.107-10.308
		c-0.738-0.342-0.847-0.893-0.528-1.586c-0.905-3.39,0.052-7.174-2.176-10.284c-1.524-1.114-1.946-2.487-0.98-4.185
		c-0.269-1.962-0.538-3.924-0.807-5.885c-1.251-0.968-0.438-3.488-2.75-3.659c-0.308,2.038-0.615,4.076-0.923,6.114
		c0.78,1.269,0.584,2.459-0.292,3.593c-0.456,1.545-0.913,3.09-1.369,4.635c-0.964,2.063,1.648,5.065-1.707,6.499
		c-0.236,1.469-0.473,2.938-0.709,4.407c-0.019,0.535-0.039,1.07-0.058,1.606c-0.049,1.954-0.415,3.915,0.129,5.857
		c0.946,0.8,0.871,1.595-0.013,2.385c-0.252,0.7-0.505,1.4-0.757,2.101c0.446,1.183,0.404,2.267-0.643,3.145
		c-1.377,5.475-0.964,11.427-4.294,17.16c-1.728-2.88-1.204-6.016-3.274-7.891c-1.03,0.429-1.226,1.235-1.489,1.987
		c-2.522,7.208-4.281,14.463-3.692,22.272c1.002,13.273-2.176,26.442-1.413,39.736c0.183,3.197,0.822,6.425,0.559,9.582
		c-1.002,12.069-0.499,24.155-0.787,36.229c-0.066,2.767,0.232,5.624-0.991,8.254c0.023,0.009,0.046,0.015,0.069,0.025
		c0.302,0.124,0.751,0.517,0.718,0.716c-0.095,0.568-0.384,0.614-0.703,0.343c-0.39-0.331-0.325-0.567-0.104-1.032
		c0.008-0.017,0.013-0.034,0.021-0.051c-5.309-2.127-10.583,0.441-15.894,0.224c-1.321-0.054-1.437,1.554-1.868,2.708
		c-0.872,2.333-4.822,3.152-5.503,1.115c-1.447-4.327-5.125-2.815-7.639-4.264c-1.831,5.126-1.841,4.942-6.687,5.197
		c-3.365,0.177-6.261-1.54-9.373-1.809c-3.871-0.334-3.494-2.251-2.86-4.981c1.458,0.134,2.826,0.358,4.195,0.36
		c1.822,0.003,2.311-1.244,2.37-2.83c0.058-1.569-0.304-2.582-2.119-3.023c-4.774-1.161-4.708-1.253-4.643-5.932
		c0.067-4.829,0.109-9.66,0.024-14.487c-0.045-2.518,0.647-4.738,1.967-6.819c-0.091-0.243-0.203-0.48-0.263-0.73
		c-0.029-0.121,0.039-0.265,0.064-0.398c-0.234-0.326-0.448-0.667-0.641-1.02c-1.121-0.648-1.694-1.563-1.413-2.894
		c-4.432-12.721-8.864-25.443-13.296-38.165c-2.114-3.079-3.046-6.584-3.667-10.199c-0.871-2.387-1.741-4.774-2.612-7.162
		c-1.283-0.776-0.946-3.167-3.081-3.094c-0.352,0.99-0.704,1.981-1.056,2.971c0.295,0.707,0.06,1.199-0.615,1.512
		c-0.654,1.495-1.309,2.992-1.964,4.488c0.015,0.647-0.275,0.886-0.901,0.672c-3.39,14.122-10.14,26.97-15.438,40.741
		c0.286-5.767-5.214-8.435-6.075-13.621c-2.018-12.169-4.709-24.226-7.128-36.328c-1.817-1.108-0.831-3.017-1.291-4.512
		c-0.313-0.988-0.627-1.977-0.941-2.966c-1.029-0.398-1.984-0.321-2.833,0.439c-0.783,3.275-1.566,6.55-2.349,9.825
		c0.353,5.337-1.876,10.231-2.714,15.368c-1.13,6.928-2.905,13.75-4.352,20.628c-0.432,2.056-0.849,4.017-3.508,4.133
		c-0.189,1.064-0.377,2.128-0.566,3.192c0.215,0.682,0.081,1.233-0.595,1.579c-0.243,1.076-0.486,2.152-0.729,3.229
		c0.235,0.68,0.054,1.202-0.587,1.549c-0.738,2.833-1.598,5.641-2.171,8.507c-0.405,2.026-2.979,3.386-1.75,5.867
		c0.878,0.266,1.196,0.674,0.347,1.376c-0.059,4.374-0.118,8.748-0.177,13.121c0.853,1.678,0.45,3.266-0.345,4.826
		c-0.309,2.068,0.555,4.308-0.915,6.205c-0.451,1.184-0.909,1.238-1.376,0.011c-0.346-0.279-0.693-0.559-1.04-0.84
		c-6.792,1.456-13.548,1.914-20.187-0.742c-0.304-0.24-0.518-0.545-0.642-0.913c-0.74-0.193-1.038-0.642-0.809-1.394
		c-0.137-1.152-0.274-2.306-0.412-3.459c-1.161-0.454-2.269-0.952-2.053-2.525c0,0.001-0.079-0.21-0.079-0.21
		c-1.36-0.771-1.905-2.043-1.816-3.491c0.236-3.838-2.114-5.174-5.332-5.755c-0.475,0.989-1.489,1.856-2.326,1.594
		c-5.256-1.649-11.18,0.217-16.119-3.233c-1.536-1.073-4.218-2.451-5.304-0.395c-1.706,3.229-4.231,2.456-6.669,2.516
		c-4.408,0.109-8.839,0.297-13.226-0.02c-3.848-0.277-6.592,1.018-8.608,4.173c-1.789,2.243-3.044,5.046-6.173,5.882
		c-0.059,0.402-0.119,0.803-0.179,1.205c0.407,0.749,0.203,1.28-0.572,1.608c-0.631,0.992-1.053,2.207-2.477,2.367
		c-1.226-0.966-0.543-2.25-0.546-3.361c-0.02-6.439,0.544-12.925-0.054-19.305c-0.68-7.263-0.956-14.416,0.195-21.63
		c0.57-3.572-0.825-7.463,0.634-10.77c2.284-5.176-4.053-5.691-4.466-9.397c-0.192-1.725-0.794-3.507-1.006-5.293
		c-2.378-19.973-4.901-39.931-7.045-59.93c-4.268-39.809-8.322-79.641-12.465-119.463c-0.634-0.449-0.756-0.977-0.248-1.603
		c-0.093-0.524-0.186-1.049-0.279-1.574c-2.085,1.211-1.464,3.537-2.162,5.317c-0.792,2.02-0.563,4.377-1.993,6.203
		c-0.336,1.891-0.672,3.781-1.008,5.671c0.719,5.509-1.153,10.734-1.975,16.042c-1.505,9.721-2.179,19.568-4.373,29.182
		c-0.138,0.679-0.277,1.358-0.415,2.037c0.603,1.403,0.298,2.664-0.601,3.832c-1.37,9.147-2.649,18.309-4.127,27.438
		c-4.082,25.214-7.991,50.456-11.24,75.79c-1.05,8.186-1.889,16.281-8.013,22.593c2.079,1.347,1.677,3.489,1.604,5.423
		c-0.407,10.767-0.893,21.532-1.354,32.297c-0.051,1.182,0.036,2.574-1.486,2.829c-1.162,0.194-1.747-0.89-2.103-1.799
		c-1.168-2.981-4.384-4.712-4.88-8.082c-3.182-4.862-6.014-10.011-9.67-14.489c-2.517-3.082-3.628-6.145-3.238-9.889
		c1.272-12.208-1.161-24.301-1.037-36.513c0.132-13.014-0.667-26.041,0.466-39.053c0.197-2.263-0.328-4.427-1.17-6.449
		c-0.458-1.099-1.107-2.045-1.118-3.327c-0.068-8.04-2.472-15.831-2.583-23.881c-0.017-1.236-0.159-2.771-1.709-3.606
		c-0.826,4.778-1.91,9.46-2.365,14.203c-0.337,3.502-1.835,4.474-4.989,3.709c-2.22,0.704-4.412,1.174-6.301-0.784l-0.015-0.011
		c-1.273,0.129-2.082-0.435-2.461-1.645c-1.581-0.567-2.576-0.401-4.107,0.951c-3.901,3.447-7.157,2.003-8.088-2.919
		c-0.577-3.053-0.411-6.36-2.718-9.577c-1.691,2.651-1.65,5.263-1.976,7.766c0.224,5.46-1.656,10.798-0.918,16.302
		c0.136,1.018-0.588,1.809-1.79,1.834c-1.579,1.528-0.786,3.505-1.002,5.291c1.381,1.471,1.129,3.331,1.138,5.09
		c0.048,9.348,0.031,18.697,0.076,28.046c0.012,2.421-0.437,4.732-1.276,6.985c0.019,0.737,0.037,1.475,0.056,2.212
		c1.483,3.198,1.616,6.397,0.005,9.597c-0.957,2.688-1.259,5.439-1.198,8.304c0.099,4.627,0.028,9.263-0.149,13.889
		c-0.235,6.177-4.664,10.268-10.649,10.144c-9.054-0.188-18.114-0.213-27.162-0.513c-1.403-0.047-2.807-0.082-4.209-0.144
		c-3.536-0.158-5.915,0.73-7.13,3.967c-1.204,3.207-3.484,4.046-6.649,3.86c-3.211-0.189-6.441-0.078-9.663-0.09
		c-6.893-0.025-6.886-0.026-9.207-6.424c-0.095-0.262-0.535-0.398-0.921-0.667c-1.482,1.065-1.432,2.766-1.835,4.276
		c-0.264,0.991-0.732,2.003-1.852,2.131c-1.708,0.195-1.668-1.295-2.048-2.392c-1.146-3.308-1.104-7.018-3.307-10.629
		c-2.269,3.608-2.332,7.287-3.424,10.606c-0.176,0.536-0.347,1.091-0.576,1.56c3.076,12.189,8.729,23.228,19.382,31.662
		c0.004-0.006,0.008-0.011,0.013-0.017c-62.664,83.33-115.178,168.641-178.146,246.349L1414.266,499.625z"/>
</g>
</svg>
